<svg width="307" height="57" fill="none" xmlns="http://www.w3.org/2000/svg"><path d="M41.417 9.84h-17.36V56h-6.24V9.84H.377V4h41.04v5.84zm10.157-2.08h-8.16V0h8.16v7.76zm-.96 8.24v40h-6.24V16h6.24zm53.175-.8c4.213 0 7.52 1.253 9.92 3.76 2.453 2.507 3.68 5.92 3.68 10.24V56h-6.24V30.8c0-6.187-2.854-9.28-8.56-9.28-2.56 0-4.907.8-7.04 2.4-2.134 1.547-3.707 3.627-4.72 6.24V56h-6.24V30.8c0-6.187-2.854-9.28-8.56-9.28-2.934 0-5.547.987-7.84 2.96-2.294 1.973-3.814 4.56-4.56 7.76V56h-6.24V16h6.24v11.44c.906-3.733 2.586-6.693 5.04-8.88 2.453-2.24 5.306-3.36 8.56-3.36 3.68 0 6.666.96 8.96 2.88 2.346 1.867 3.813 4.507 4.4 7.92 1.066-3.307 2.773-5.92 5.12-7.84 2.346-1.973 5.04-2.96 8.08-2.96zm53.758 28c-.694 3.947-2.534 7.2-5.52 9.76-2.987 2.56-6.694 3.84-11.12 3.84-3.627 0-6.934-.88-9.92-2.64-2.987-1.813-5.334-4.293-7.04-7.44-1.707-3.147-2.56-6.693-2.56-10.64 0-3.947.826-7.493 2.48-10.64 1.653-3.2 3.92-5.707 6.8-7.52 2.933-1.813 6.213-2.72 9.84-2.72 5.44 0 9.68 1.733 12.72 5.2 3.04 3.467 4.56 8.427 4.56 14.88 0 1.067-.027 1.867-.08 2.4h-30.08c.373 3.84 1.786 6.987 4.24 9.44 2.506 2.4 5.52 3.6 9.04 3.6 2.613 0 4.88-.693 6.8-2.08s3.226-3.2 3.92-5.44h5.92zm-17.44-21.92c-2.934 0-5.494.96-7.68 2.88-2.134 1.867-3.6 4.373-4.4 7.52h23.36c-.267-3.307-1.44-5.867-3.52-7.68-2.08-1.813-4.667-2.72-7.76-2.72zm25.544 17.92c.16 2.24.88 4.267 2.16 6.08 1.28 1.76 2.933 3.147 4.96 4.16a14.29 14.29 0 006.48 1.52c2.88 0 5.2-.8 6.96-2.4 1.813-1.6 2.72-3.653 2.72-6.16 0-1.6-.4-2.907-1.2-3.92-.8-1.067-1.84-1.92-3.12-2.56-1.227-.693-2.907-1.413-5.04-2.16-.054-.053-.614-.267-1.68-.64-4-1.547-7.04-2.8-9.12-3.76-2.08-1.013-3.974-2.507-5.68-4.48-1.654-1.973-2.48-4.48-2.48-7.52 0-2.613.64-4.987 1.92-7.12 1.333-2.187 3.2-3.893 5.6-5.12 2.453-1.28 5.306-1.92 8.56-1.92 5.013 0 8.933 1.52 11.76 4.56 2.826 2.987 4.186 6.987 4.08 12h-5.52c-.107-3.573-1.147-6.213-3.12-7.92-1.974-1.76-4.48-2.64-7.52-2.64-2.667 0-4.934.64-6.8 1.92-1.814 1.28-2.72 3.253-2.72 5.92 0 1.653.373 2.987 1.12 4a9.542 9.542 0 002.96 2.48c1.226.64 3.04 1.413 5.44 2.32l3.12 1.2c.373.16.72.32 1.04.48.373.16.72.293 1.04.4 2.826 1.12 5.146 2.187 6.96 3.2 1.813 1.013 3.36 2.453 4.64 4.32 1.333 1.813 2 4.107 2 6.88 0 4.32-1.334 7.813-4 10.48-2.667 2.667-6.48 4-11.44 4-4.48 0-8.214-.933-11.2-2.8-2.934-1.92-5.094-4.16-6.48-6.72-1.387-2.613-2.08-4.907-2.08-6.88 0-.373.053-.773.16-1.2h5.52zm41.642-31.44h-8.16V0h8.16v7.76zm-.96 8.24v40h-6.24V16h6.24zm26.614-.8c4.214 0 7.52 1.253 9.92 3.76 2.454 2.507 3.68 5.92 3.68 10.24V56h-6.24V30.8c0-6.187-2.853-9.28-8.56-9.28-2.933 0-5.546.987-7.84 2.96-2.293 1.973-3.813 4.56-4.56 7.76V56h-6.24V16h6.24v11.44c.907-3.733 2.587-6.693 5.04-8.88 2.454-2.24 5.307-3.36 8.56-3.36zM253.583 0h6.24v56h-6.24V0zm34.08 56h-8l-19.68-22.32L277.343 16h8.96l-17.84 17.76 19.2 22.24zm9.015-4.028a10.03 10.03 0 01-5.168-1.406 10.93 10.93 0 01-3.762-3.838 10.375 10.375 0 01-1.406-5.282c0-1.9.456-3.648 1.368-5.244.938-1.621 2.192-2.9 3.762-3.838a10.1 10.1 0 015.206-1.406c1.85 0 3.56.469 5.13 1.406a10.135 10.135 0 013.762 3.838c.938 1.596 1.406 3.344 1.406 5.244s-.468 3.66-1.406 5.282a10.912 10.912 0 01-3.762 3.838 9.827 9.827 0 01-5.13 1.406zm0-2.698c1.47 0 2.774-.342 3.914-1.026a7.285 7.285 0 002.698-2.85 8.42 8.42 0 00.95-3.952c0-1.419-.316-2.71-.95-3.876a7.021 7.021 0 00-2.698-2.812c-1.14-.71-2.444-1.064-3.914-1.064-1.494 0-2.824.355-3.99 1.064a7.035 7.035 0 00-2.698 2.812c-.633 1.165-.95 2.457-.95 3.876s.317 2.736.95 3.952a7.674 7.674 0 002.698 2.85c1.166.684 2.496 1.026 3.99 1.026zm-3.61-12.958h3.952c2.66 0 3.99 1 3.99 3.002 0 .76-.152 1.38-.456 1.862-.278.456-.772.735-1.482.836.684.152 1.153.418 1.406.798.254.355.38.836.38 1.444v1.976h-2.47v-1.976c0-.38-.139-.659-.418-.836-.253-.177-.684-.266-1.292-.266h-1.14v3.078h-2.47v-9.918zm3.876 4.598c.507 0 .9-.101 1.178-.304.279-.228.418-.545.418-.95.051-.684-.481-1.026-1.596-1.026h-1.406v2.28h1.406z" fill="#F5F7F9"/></svg>