<svg width="307" height="57" viewBox="0 0 307 57" fill="none" xmlns="http://www.w3.org/2000/svg">
<path d="M41.4168 9.84H24.0568V56H17.8168V9.84H0.376758V4H41.4168V9.84ZM51.5743 7.76H43.4143V-3.8147e-06H51.5743V7.76ZM50.6143 16V56H44.3743V16H50.6143ZM103.789 15.2C108.002 15.2 111.309 16.4533 113.709 18.96C116.162 21.4667 117.389 24.88 117.389 29.2V56H111.149V30.8C111.149 24.6133 108.295 21.52 102.589 21.52C100.029 21.52 97.682 22.32 95.5486 23.92C93.4153 25.4667 91.842 27.5467 90.8286 30.16V56H84.5886V30.8C84.5886 24.6133 81.7353 21.52 76.0286 21.52C73.0953 21.52 70.482 22.5067 68.1886 24.48C65.8953 26.4533 64.3753 29.04 63.6286 32.24V56H57.3886V16H63.6286V27.44C64.5353 23.7067 66.2153 20.7467 68.6686 18.56C71.122 16.32 73.9753 15.2 77.2286 15.2C80.9086 15.2 83.8953 16.16 86.1886 18.08C88.5353 19.9467 90.002 22.5867 90.5886 26C91.6553 22.6933 93.362 20.08 95.7086 18.16C98.0553 16.1867 100.749 15.2 103.789 15.2ZM157.547 43.2C156.853 47.1467 155.013 50.4 152.027 52.96C149.04 55.52 145.333 56.8 140.907 56.8C137.28 56.8 133.973 55.92 130.987 54.16C128 52.3467 125.653 49.8667 123.947 46.72C122.24 43.5733 121.387 40.0267 121.387 36.08C121.387 32.1333 122.213 28.5867 123.867 25.44C125.52 22.24 127.787 19.7333 130.667 17.92C133.6 16.1067 136.88 15.2 140.507 15.2C145.947 15.2 150.187 16.9333 153.227 20.4C156.267 23.8667 157.787 28.8267 157.787 35.28C157.787 36.3467 157.76 37.1467 157.707 37.68H127.627C128 41.52 129.413 44.6667 131.867 47.12C134.373 49.52 137.387 50.72 140.907 50.72C143.52 50.72 145.787 50.0267 147.707 48.64C149.627 47.2533 150.933 45.44 151.627 43.2H157.547ZM140.107 21.28C137.173 21.28 134.613 22.24 132.427 24.16C130.293 26.0267 128.827 28.5333 128.027 31.68H151.387C151.12 28.3733 149.947 25.8133 147.867 24C145.787 22.1867 143.2 21.28 140.107 21.28ZM165.651 39.2C165.811 41.44 166.531 43.4667 167.811 45.28C169.091 47.04 170.744 48.4267 172.771 49.44C174.797 50.4533 176.957 50.96 179.251 50.96C182.131 50.96 184.451 50.16 186.211 48.56C188.024 46.96 188.931 44.9067 188.931 42.4C188.931 40.8 188.531 39.4933 187.731 38.48C186.931 37.4133 185.891 36.56 184.611 35.92C183.384 35.2267 181.704 34.5067 179.571 33.76C179.517 33.7067 178.957 33.4933 177.891 33.12C173.891 31.5733 170.851 30.32 168.771 29.36C166.691 28.3467 164.797 26.8533 163.091 24.88C161.437 22.9067 160.611 20.4 160.611 17.36C160.611 14.7467 161.251 12.3733 162.531 10.24C163.864 8.05333 165.731 6.34666 168.131 5.12C170.584 3.84 173.437 3.2 176.691 3.2C181.704 3.2 185.624 4.72 188.451 7.76C191.277 10.7467 192.637 14.7467 192.531 19.76H187.011C186.904 16.1867 185.864 13.5467 183.891 11.84C181.917 10.08 179.411 9.2 176.371 9.2C173.704 9.2 171.437 9.84 169.571 11.12C167.757 12.4 166.851 14.3733 166.851 17.04C166.851 18.6933 167.224 20.0267 167.971 21.04C168.771 22.0533 169.757 22.88 170.931 23.52C172.157 24.16 173.971 24.9333 176.371 25.84L179.491 27.04C179.864 27.2 180.211 27.36 180.531 27.52C180.904 27.68 181.251 27.8133 181.571 27.92C184.397 29.04 186.717 30.1067 188.531 31.12C190.344 32.1333 191.891 33.5733 193.171 35.44C194.504 37.2533 195.171 39.5467 195.171 42.32C195.171 46.64 193.837 50.1333 191.171 52.8C188.504 55.4667 184.691 56.8 179.731 56.8C175.251 56.8 171.517 55.8667 168.531 54C165.597 52.08 163.437 49.84 162.051 47.28C160.664 44.6667 159.971 42.3733 159.971 40.4C159.971 40.0267 160.024 39.6267 160.131 39.2H165.651ZM207.293 7.76H199.133V-3.8147e-06H207.293V7.76ZM206.333 16V56H200.093V16H206.333ZM232.947 15.2C237.161 15.2 240.467 16.4533 242.867 18.96C245.321 21.4667 246.547 24.88 246.547 29.2V56H240.307V30.8C240.307 24.6133 237.454 21.52 231.747 21.52C228.814 21.52 226.201 22.5067 223.907 24.48C221.614 26.4533 220.094 29.04 219.347 32.24V56H213.107V16H219.347V27.44C220.254 23.7067 221.934 20.7467 224.387 18.56C226.841 16.32 229.694 15.2 232.947 15.2ZM253.583 -3.8147e-06H259.823V56H253.583V-3.8147e-06ZM287.663 56H279.663L259.983 33.68L277.343 16H286.303L268.463 33.76L287.663 56ZM296.678 51.972C294.829 51.972 293.106 51.5033 291.51 50.566C289.94 49.6033 288.686 48.324 287.748 46.728C286.811 45.1067 286.342 43.346 286.342 41.446C286.342 39.546 286.798 37.798 287.71 36.202C288.648 34.5807 289.902 33.3013 291.472 32.364C293.068 31.4267 294.804 30.958 296.678 30.958C298.528 30.958 300.238 31.4267 301.808 32.364C303.404 33.3013 304.658 34.5807 305.57 36.202C306.508 37.798 306.976 39.546 306.976 41.446C306.976 43.346 306.508 45.1067 305.57 46.728C304.633 48.324 303.379 49.6033 301.808 50.566C300.238 51.5033 298.528 51.972 296.678 51.972ZM296.678 49.274C298.148 49.274 299.452 48.932 300.592 48.248C301.758 47.5387 302.657 46.5887 303.29 45.398C303.924 44.182 304.24 42.8647 304.24 41.446C304.24 40.0273 303.924 38.7353 303.29 37.57C302.657 36.3793 301.758 35.442 300.592 34.758C299.452 34.0487 298.148 33.694 296.678 33.694C295.184 33.694 293.854 34.0487 292.688 34.758C291.523 35.442 290.624 36.3793 289.99 37.57C289.357 38.7353 289.04 40.0273 289.04 41.446C289.04 42.8647 289.357 44.182 289.99 45.398C290.649 46.5887 291.548 47.5387 292.688 48.248C293.854 48.932 295.184 49.274 296.678 49.274ZM293.068 36.316H297.02C299.68 36.316 301.01 37.3167 301.01 39.318C301.01 40.078 300.858 40.6987 300.554 41.18C300.276 41.636 299.782 41.9147 299.072 42.016C299.756 42.168 300.225 42.434 300.478 42.814C300.732 43.1687 300.858 43.65 300.858 44.258V46.234H298.388V44.258C298.388 43.878 298.249 43.5993 297.97 43.422C297.717 43.2447 297.286 43.156 296.678 43.156H295.538V46.234H293.068V36.316ZM296.944 40.914C297.451 40.914 297.844 40.8127 298.122 40.61C298.401 40.382 298.54 40.0653 298.54 39.66C298.591 38.976 298.059 38.634 296.944 38.634H295.538V40.914H296.944Z" fill="#F5F7F9"/>
</svg>
